<svg xmlns="http://www.w3.org/2000/svg" width="17.325" height="23.153" viewBox="0 0 17.325 23.153">
  <g id="Group_71955" data-name="Group 71955" transform="translate(289 -1869)">
    <path id="Vector" d="M0,21.336V0" transform="translate(-288.112 1869.909)"/>
    <path id="Vector-2" data-name="Vector" d="M0,22.285V.868A.9.9,0,0,1,.909,0a.9.9,0,0,1,.909.868V22.285a.9.9,0,0,1-.909.868A.9.9,0,0,1,0,22.285Z" transform="translate(-289 1869)" fill="#4a46a3"/>
    <path id="Vector-3" data-name="Vector" d="M13.678,9.087a1.733,1.733,0,0,1-.534-1.248,2.071,2.071,0,0,1,.557-1.49L15.065,4.9c1.182-1.26,1.626-2.472,1.251-3.429S14.827,0,13.167,0H.432A.466.466,0,0,0,0,.473v14.54a.447.447,0,0,0,.432.46H13.167c1.637,0,2.74-.533,3.115-1.49s-.057-2.169-1.217-3.417Z" transform="translate(-288.121 1870.604)" fill="#b6b5da"/>
  </g>
</svg>
