<svg xmlns="http://www.w3.org/2000/svg" width="19" height="19" viewBox="0 0 19 19">
  <g id="vuesax_twotone_notification-bing" data-name="vuesax/twotone/notification-bing" transform="translate(0.5 0.5)">
    <g id="vuesax_twotone_notification-bing-2" data-name="vuesax/twotone/notification-bing">
      <g id="notification-bing">
        <path id="Vector" d="M0,0V2.5" transform="translate(9 4.83)" fill="none" stroke="#7b7b7b" stroke-linecap="round" stroke-miterlimit="10" stroke-width="1.5" stroke-dasharray="0 0" opacity="0.4"/>
        <path id="Vector-2" data-name="Vector" d="M1.693,4.995V6.57a3.894,3.894,0,0,1-.473,1.71L.268,9.87a1.6,1.6,0,0,0,.9,2.437,17.5,17.5,0,0,0,11.047,0,1.665,1.665,0,0,0,.9-2.437l-.953-1.59a3.922,3.922,0,0,1-.472-1.71V4.995a5,5,0,0,0-10,0Z" transform="translate(2.327 1.5)" fill="none" stroke="#7b7b7b" stroke-linecap="round" stroke-miterlimit="10" stroke-width="1.5" stroke-dasharray="0 0"/>
        <path id="Vector-3" data-name="Vector" d="M4.995,0A2.506,2.506,0,0,1,2.5,2.5,2.5,2.5,0,0,1,.735,1.763,2.5,2.5,0,0,1,0,0" transform="translate(6.502 14.115)" fill="none" stroke="#7b7b7b" stroke-miterlimit="10" stroke-width="1.5" stroke-dasharray="0 0" opacity="0.4"/>
        <path id="Vector-4" data-name="Vector" d="M18,0V18H0V0Z" fill="none" stroke="#7b7b7b" stroke-width="1" opacity="0"/>
      </g>
    </g>
  </g>
</svg>
