<svg xmlns="http://www.w3.org/2000/svg" width="34" height="34" viewBox="0 0 34 34">
  <g id="Group_47184" data-name="Group 47184" transform="translate(-58.659 -523)">
    <circle id="Ellipse_7" data-name="Ellipse 7" cx="17" cy="17" r="17" transform="translate(58.659 523)" fill="#4a46a3"/>
    <g id="vuesax_linear_call" data-name="vuesax/linear/call" transform="translate(67.606 531.947)">
      <rect id="vuesax_linear_call-2" data-name="vuesax/linear/call" width="15" height="15" transform="translate(0.053 0.053)" fill="none"/>
      <g id="vuesax_linear_call-3" data-name="vuesax/linear/call">
        <g id="call">
          <g id="call-2" data-name="call" transform="translate(1.288 1.288)">
            <path id="Vector" d="M12.859,10.515a1.639,1.639,0,0,1-.161.7,2.657,2.657,0,0,1-.438.657,2.9,2.9,0,0,1-1.056.76,3.234,3.234,0,0,1-1.256.245,5.366,5.366,0,0,1-2.1-.47,11.31,11.31,0,0,1-2.215-1.275,18.513,18.513,0,0,1-2.112-1.8,18.3,18.3,0,0,1-1.8-2.106,11.48,11.48,0,0,1-1.262-2.2A5.424,5.424,0,0,1,0,2.923,3.331,3.331,0,0,1,.232,1.681,2.964,2.964,0,0,1,.972.605,1.887,1.887,0,0,1,2.312,0a1.21,1.21,0,0,1,.522.116,1.05,1.05,0,0,1,.431.361L4.759,2.582a2.2,2.2,0,0,1,.258.451,1.018,1.018,0,0,1,.09.393.874.874,0,0,1-.135.457,2.19,2.19,0,0,1-.361.457l-.489.509a.345.345,0,0,0-.1.258.585.585,0,0,0,.019.148c.019.052.039.09.052.129a5.344,5.344,0,0,0,.6.824c.29.335.6.676.934,1.017s.683.657,1.024.947a4.942,4.942,0,0,0,.831.592c.032.013.071.032.116.052a.445.445,0,0,0,.161.026.354.354,0,0,0,.264-.109l.489-.483a1.976,1.976,0,0,1,.464-.361.857.857,0,0,1,.457-.135,1.028,1.028,0,0,1,.393.084,2.49,2.49,0,0,1,.451.251L12.4,9.6a.977.977,0,0,1,.354.412A1.321,1.321,0,0,1,12.859,10.515Z" fill="none" stroke="#fff" stroke-width="1.2"/>
          </g>
          <g id="Vector-2" data-name="Vector" fill="none" opacity="0">
            <path d="M0,0H15.454V15.454H0Z" stroke="none"/>
            <path d="M 1.000003814697266 1.000003814697266 L 1.000003814697266 14.45446300506592 L 14.45446300506592 14.45446300506592 L 14.45446300506592 1.000003814697266 L 1.000003814697266 1.000003814697266 M 3.814697265625e-06 3.814697265625e-06 L 15.45446300506592 3.814697265625e-06 L 15.45446300506592 15.45446300506592 L 3.814697265625e-06 15.45446300506592 L 3.814697265625e-06 3.814697265625e-06 Z" stroke="none" fill="#fff"/>
          </g>
        </g>
      </g>
    </g>
  </g>
</svg>
