<svg xmlns="http://www.w3.org/2000/svg" width="67.483" height="29.961" viewBox="0 0 67.483 29.961">
  <g id="Group_72254" data-name="Group 72254" transform="translate(-413.19 -186.162)">
    <path id="Path_81276" data-name="Path 81276" d="M473.721,189.014a35.729,35.729,0,0,1,5.1,8.941c.548,1.334.364,2.833,1.073,3.866a4.111,4.111,0,0,1,.689,3.3,14.481,14.481,0,0,1-1.523,4.134c-.259.464-1.33.476-2.049.7-1.127-6.256-4.462-9.334-9.34-8.782-4.59.519-7.44,4.234-7.284,9.6h-26.71a8.378,8.378,0,0,0-2.814-7.651,7.88,7.88,0,0,0-5.495-1.991c-4.807.089-7.685,3.4-8.176,9.418-2.343.381-3.752-.709-3.877-3.087a14.909,14.909,0,0,1,.044-4.067,25.619,25.619,0,0,1,1.916-5.049c.221-.468.993-.746,1.569-.964a41.348,41.348,0,0,1,11.989-2.2,5.619,5.619,0,0,0,2.017-.813,4.784,4.784,0,0,0,.92-.8,26.841,26.841,0,0,1,18.6-7.4,202.341,202.341,0,0,1,23.2,1.355,3.376,3.376,0,0,1,1.048.541Zm-22.169,5.8.774-6.711c-6.237-.692-14.8,1.992-17.115,5.3,1.305.461,3.484-.562,3.407,2.139Zm1.861-.186c5.027.035,9.817-.121,14.384-2.121-.214-1.009-.472-1.972-.608-2.952-.109-.789-.5-1.032-1.248-1.066-2.483-.113-4.962-.312-7.445-.421-1.388-.061-2.78-.011-4.3-.011Z" fill="#c3c3c3"/>
    <path id="Path_81277" data-name="Path 81277" d="M598.682,260a6.678,6.678,0,0,1-6.765-6.687A6.776,6.776,0,1,1,598.682,260Zm.044-11.5a4.772,4.772,0,0,0-4.813,4.69,4.755,4.755,0,1,0,9.51.091A4.712,4.712,0,0,0,598.726,248.505Z" transform="translate(-130.094 -43.879)" fill="#c3c3c3"/>
    <path id="Path_81278" data-name="Path 81278" d="M447.026,253.212a6.7,6.7,0,0,1-6.679,6.777,6.769,6.769,0,0,1-6.88-6.746,6.779,6.779,0,1,1,13.559-.031Zm-11.508.013a4.756,4.756,0,1,0,4.75-4.73A4.711,4.711,0,0,0,435.518,253.225Z" transform="translate(-14.76 -43.866)" fill="#c3c3c3"/>
    <path id="Path_81279" data-name="Path 81279" d="M604.064,254.017a4.712,4.712,0,0,1,4.7,4.781,4.755,4.755,0,1,1-4.7-4.781Z" transform="translate(-135.431 -49.39)" fill="#fff"/>
    <path id="Path_81280" data-name="Path 81280" d="M441,258.756a4.756,4.756,0,0,1,9.511,0,4.755,4.755,0,1,1-9.511,0Z" transform="translate(-20.246 -49.397)" fill="#fff"/>
  </g>
</svg>
