<svg xmlns="http://www.w3.org/2000/svg" width="62.288" height="25.851" viewBox="0 0 62.288 25.851">
  <g id="layer1" transform="translate(0 0)">
    <path id="path3796" d="M41.159,152.241a.642.642,0,0,1-.35.261,6.151,6.151,0,0,1-1.343.284c-.778.1-1.616.254-2.383.42-.98.213-1.942.5-2.9.81q-1.3.419-2.558.942c-.8.332-1.581.705-2.351,1.1q-.984.5-1.931,1.071-.973.582-1.908,1.226c-.712.491-1.4,1.011-2.087,1.538-.4.306-.8.611-1.176.942a3.666,3.666,0,0,1-.561.483.839.839,0,0,1-.849.012c-.286-.135-.759-.417-.759-.417s.569-.425,1.016-.736c-.008,0-.02.007-.027.008a3.658,3.658,0,0,1-.934-.109,2.61,2.61,0,0,0-.525-.023,8.111,8.111,0,0,0-1.121.183c-1.833.364-3.664.755-5.458,1.277a34.656,34.656,0,0,0-3.811,1.331,6.651,6.651,0,0,0-1.2.6,4.2,4.2,0,0,0-.915.833,5.1,5.1,0,0,0-.576,1.02,4.524,4.524,0,0,0-.389,1.016,8.339,8.339,0,0,0-.055,1.7c0,.61.022,1.223.082,1.83.061.622.152,1.162.179,1.787a1.2,1.2,0,0,1-.051.463,1.209,1.209,0,0,0-.078.2.4.4,0,0,0,.051.261,1.7,1.7,0,0,0,.366.522c.075.075.184.11.261.183.113.106.178.257.288.366a3.308,3.308,0,0,0,.783.6,5.47,5.47,0,0,0,1.331.42,10.836,10.836,0,0,0,1.491.206,5.293,5.293,0,0,0,1.043.027c.287-.005.242,0,.5-.008a5.911,5.911,0,1,1,11.235-.222c.187,0,.151,0,.35,0,12.972-.158,19.67-.375,29.505-.522.173,0,.34-.008.51-.012a5.912,5.912,0,1,1,11.636-.744,2.115,2.115,0,0,0,.514-.16,4.375,4.375,0,0,0,.942-.627,6.659,6.659,0,0,0,.86-.86,1.822,1.822,0,0,0,.444-.627c.085-.312-.061-.241-.078-.969-.026-1.149,0-2.3-.078-3.445a6.833,6.833,0,0,0-.156-1.359,1.257,1.257,0,0,0-.261-.378c-.083-.1-.247-.119-.261-.249-.052-.494-.058-1.01-.082-1.514-.016-.326,0-.653-.023-.977a.455.455,0,0,1-.016.066c-.033.106-.154.162-.206.261a1.122,1.122,0,0,0-.105.339,3.287,3.287,0,0,0-.027.693c.011.241.075.476.093.716a.973.973,0,0,1,.012.459.478.478,0,0,1-.261.222,1.333,1.333,0,0,1-.666.051,1.7,1.7,0,0,1-.654-.222,5.453,5.453,0,0,1-.993-.927,16.945,16.945,0,0,1-1.5-1.647,1.233,1.233,0,0,1-.3-.483.664.664,0,0,1,.1-.483,1.939,1.939,0,0,1,.81-.494,5,5,0,0,1,1.059-.382,3.835,3.835,0,0,1,.81-.078,2.784,2.784,0,0,1,.782.066,1.454,1.454,0,0,1,.638.327.6.6,0,0,1,.062.074,6.077,6.077,0,0,0-.666-1.1c-.048-.018-.593-.22-.9-.292a3.563,3.563,0,0,0-.627-.051s-.528-.766-.821-1.125a14.816,14.816,0,0,0-1.137-1.25,14.308,14.308,0,0,0-1.4-1.2c-.486-.364-1.526-.993-1.526-.993l.856-.424c-.127-.141.048-.506-.086-.67-.1-.124-.271-.124-.483-.128-.574-.012-1.113-.043-1.686-.082-.735-.049-1.462-.165-2.192-.261s-1.443-.236-2.168-.315c-1.5-.165-3.008-.266-4.516-.339-1.652-.079-3.31-.053-4.963-.105q-.927-.029-1.853-.078C42.253,152.317,41.708,152.228,41.159,152.241Zm4.306,1.475s1.21,0,1.814.027c.872.037,1.743.106,2.612.183.889.079,1.779.162,2.663.288.643.091,1.313.205,1.919.339.145.032.349.124.354.272.034.915.04,1.786.051,2.678.011.953.012,2.858.012,2.858s-3.229.026-4.843.054c-1.754.031-5.259.128-5.259.128Zm-2.846.016s-.415,2.3-.677,3.445c-.276,1.2-.942,3.578-.942,3.578s-1.932.083-2.9.156c-1.788.135-3.572.319-5.353.522-.671.076-1.908.171-1.908.171a3.393,3.393,0,0,0-.062-.72,3.452,3.452,0,0,0-.339-.638l1.028-4.138s1.156-.5,1.752-.7c.924-.313,1.87-.557,2.819-.782s1.926-.43,2.9-.576c.761-.114,1.529-.173,2.3-.234C41.7,153.773,42.619,153.732,42.619,153.732Zm13.773,1.316s.846.2,1.254.354a10.23,10.23,0,0,1,1.658.755,12.036,12.036,0,0,1,1.841,1.347,5.366,5.366,0,0,1,1.07,1.121c.243.388.118.37-.237.537a11.652,11.652,0,0,1-2.363.666c-.763.176-2.309.417-2.309.417Zm-25.523,1.32c-.277,1.132-.675,2.353-.954,3.484a2.817,2.817,0,0,0-.638-.078,2.512,2.512,0,0,0-.744.249,4.013,4.013,0,0,0-.638.417,1.9,1.9,0,0,0-.51.681,2.327,2.327,0,0,0,0,.989s-.517.047-.849.082-.993.078-.993.078.322-1.338.549-1.985c.153-.438.549-1.281.549-1.281s.485-.473.755-.677a14.63,14.63,0,0,1,1.647-1.043C29.637,156.947,30.869,156.367,30.869,156.367ZM14.005,162.6a.478.478,0,0,1,.261.054.273.273,0,0,1,.128.237c-.012.155-.179.256-.288.366a12.883,12.883,0,0,1-1.2.965c-.563.447-1.1.928-1.7,1.331a4.237,4.237,0,0,1-.81.467,3.643,3.643,0,0,1-.81.183,9.742,9.742,0,0,1-1.538.105c-.184,0-.394.048-.549-.051-.1-.065-.106-.222-.183-.315a2.245,2.245,0,0,0-.42-.366c-.082-.06-.243-.056-.261-.156-.052-.3.368-.484.576-.7a1.968,1.968,0,0,1,.627-.572c.122-.047.262.03.389,0a5.885,5.885,0,0,0,.888-.444c.382-.163.781-.29,1.176-.42s.8-.27,1.2-.366a10.431,10.431,0,0,1,1.094-.183c.312-.039.628-.065.942-.078C13.686,162.652,13.851,162.608,14.005,162.6Zm45.61,4.991a5.17,5.17,0,1,0,5.17,5.17A5.17,5.17,0,0,0,59.615,167.595Zm-41.772.156a5.17,5.17,0,1,0,5.166,5.17A5.17,5.17,0,0,0,17.844,167.751ZM59.615,169a3.761,3.761,0,1,1-3.757,3.761A3.761,3.761,0,0,1,59.615,169Zm-41.772.156a3.761,3.761,0,1,1-3.761,3.761A3.758,3.758,0,0,1,17.844,169.16Z" transform="translate(-5.997 -152.24)" fill="#4a46a3"/>
  </g>
</svg>
