<svg xmlns="http://www.w3.org/2000/svg" width="78.907" height="29.388" viewBox="0 0 78.907 29.388">
  <g id="Group_72255" data-name="Group 72255" transform="translate(-14.047 -25.691)">
    <g id="Group_72255-2" data-name="Group 72255" transform="translate(-984.401 228.748)">
      <path id="Path_81281" data-name="Path 81281" d="M1073.1-200.412c.818,2.3,1.793,4.616,2.441,7.019a32.148,32.148,0,0,1,.541,4.908,2.274,2.274,0,0,0,.266,1.161c1.241,1.448,1.094,3.162.827,4.8a2.659,2.659,0,0,1-1.459,1.689c-1.968.777-4.016,1.366-6.056,1.944a15.609,15.609,0,0,1-2.414.307c-.135-2.061-.205-3.983-.4-5.893a4.129,4.129,0,0,0-4.412-3.987c-2-.009-4,.017-5.994.055a3.629,3.629,0,0,0-3.649,3.039c-.316,1.966-.48,3.96-.622,5.949-.049.684-.256.869-.915.868q-14.882-.026-29.765,0c-.827,0-.995-.3-1.086-1.067a33.75,33.75,0,0,0-.961-5.67c-.751-2.505-2.087-3.291-4.71-3.254-1.343.019-2.69.016-4.027.122a5.06,5.06,0,0,0-5.067,4.668,39.062,39.062,0,0,0-.354,5.346c0,.871-.258,1.1-1.048,1.031a11.189,11.189,0,0,0-1.653,0,1.6,1.6,0,0,1-1.82-1.168c-.115-.319-.574-.511-.865-.773-.319-.288-.83-.548-.9-.893a27.986,27.986,0,0,1-.542-3.974,2.183,2.183,0,0,1,.527-1.518c1.026-1.02,1.01-2.269,1.037-3.54.008-.379.018-.758.027-1.136a2.549,2.549,0,0,1,2.3-2.728,109.594,109.594,0,0,1,16.321-1.684,2.342,2.342,0,0,0,1.307-.42,57.805,57.805,0,0,1,10.409-6.287,1.384,1.384,0,0,0,.556-.42c.442-.637.828-1.332,1.561-.258.061.09.389.013.59-.01,11.533-1.318,23.1-.769,34.662-.67a13.037,13.037,0,0,1,2.1.619c.944.182,1.918.209,2.865.38a5.466,5.466,0,0,1,1.194.523Zm.575,6.019c-.884-2.083-1.667-3.868-2.393-5.676a1.227,1.227,0,0,0-1.34-.833c-3.512-.027-7.023-.1-10.535-.148a6.821,6.821,0,0,0-.877.115c1.162,2.069,2.216,4.036,3.378,5.936a1.788,1.788,0,0,0,1.312.58c2.1.06,4.2.027,6.3.027Zm-25.729,0v-.015c1.826,0,3.653-.008,5.479,0,.638,0,.869-.195.676-.874-.481-1.688-.876-3.4-1.378-5.081a1.139,1.139,0,0,0-.806-.678c-3.1-.052-6.2-.032-9.3-.048-.571,0-.792.206-.782.794q.043,2.532,0,5.065c-.01.624.21.854.841.843C1044.427-194.412,1046.185-194.393,1047.942-194.393Zm-8.77-6.565c-1.429,0-2.693-.023-3.957,0-3.032.065-5.488,1.6-7.914,3.179-.18.117-.223.856-.151.887.856.365.588,1.127.549,1.7-.014.213-.657.377-1,.583-.093.056-.139.188-.215.3h12.026C1038.74-196.617,1038.953-198.753,1039.172-200.958Zm-38.366,13.46c2.294.158,2.294.158,2.778-1.735.068-.266.159-.528.206-.8a2.4,2.4,0,0,1,2.314-2.106,4.486,4.486,0,0,0,.962-.356l-.1-.281a35.784,35.784,0,0,0-4.167.556,2.3,2.3,0,0,0-1.371,1.324A22.024,22.024,0,0,0,1000.806-187.5Zm21.618,2.692,0,.232h27.23v-.232Zm53.475-2.95c-.189-1.825-.324-3.552-.561-5.264-.168-1.21-.279-1.231-1.568-.934l.506,6.2Zm-74.424,5.78c-.046-1.389-.194-1.515-1.32-1.511-.928,0-1.2.6-1.211,1.325-.009,1.005.5,1.379,1.484,1.41C1001.431-180.72,1001.578-181.275,1001.474-181.975Zm69.208-7.705c.025-.84-.555-1.13-1.25-1.124-.785.007-1.111.564-1.135,1.3a1.132,1.132,0,0,0,1.261,1.259C1070.463-188.281,1070.641-188.917,1070.682-189.68Zm-35.706-2.058c1.377,1.53,2.692.626,4.013,0Zm15.92-.464c1.38,1.412,2.7.629,4.023,0Z" transform="translate(0)" fill="#c3c3c3"/>
      <path id="Path_81284" data-name="Path 81284" d="M1114.406-114.78h27.233v.232h-27.23Z" transform="translate(-91.982 -70.025)" fill="#c3c3c3"/>
      <path id="Path_81285" data-name="Path 81285" d="M1338.659-142.67c-.042.764-.22,1.4-1.124,1.44a1.132,1.132,0,0,1-1.261-1.259c.023-.741.35-1.3,1.135-1.3C1338.1-143.8,1338.684-143.51,1338.659-142.67Z" transform="translate(-267.977 -47.011)" fill="#c3c3c3"/>
      <path id="Path_81288" data-name="Path 81288" d="M446.694,253.046a6.535,6.535,0,0,1-6.515,6.611,6.6,6.6,0,0,1-6.712-6.58,6.614,6.614,0,1,1,13.227-.03Zm-11.226.013a4.639,4.639,0,1,0,4.634-4.614A4.6,4.6,0,0,0,435.468,253.058Z" transform="translate(619.486 -433.402)" fill="#c3c3c3"/>
      <path id="Path_81289" data-name="Path 81289" d="M441,258.64a4.639,4.639,0,0,1,9.278,0,4.639,4.639,0,1,1-9.278,0Z" transform="translate(613.949 -438.984)" fill="#fff"/>
      <path id="Path_81290" data-name="Path 81290" d="M446.694,253.046a6.535,6.535,0,0,1-6.515,6.611,6.6,6.6,0,0,1-6.712-6.58,6.614,6.614,0,1,1,13.227-.03Zm-11.226.013a4.639,4.639,0,1,0,4.634-4.614A4.6,4.6,0,0,0,435.468,253.058Z" transform="translate(572.667 -433.326)" fill="#c3c3c3"/>
      <path id="Path_81291" data-name="Path 81291" d="M441,258.64a4.639,4.639,0,0,1,9.278,0,4.639,4.639,0,1,1-9.278,0Z" transform="translate(567.13 -438.908)" fill="#fff"/>
    </g>
  </g>
</svg>
