<svg xmlns="http://www.w3.org/2000/svg" width="34" height="34" viewBox="0 0 34 34">
  <g id="Group_47185" data-name="Group 47185" transform="translate(-58.659 -523)">
    <circle id="Ellipse_7" data-name="Ellipse 7" cx="17" cy="17" r="17" transform="translate(58.659 523)" fill="#32c891"/>
    <g id="vuesax_twotone_message-text" data-name="vuesax/twotone/message-text" transform="translate(66.659 531)">
      <g id="vuesax_twotone_message-text-2" data-name="vuesax/twotone/message-text">
        <g id="message-text">
          <path id="Vector" d="M4.5,12.75c-3,0-4.5-.75-4.5-4.5V4.5Q0,0,4.5,0h6Q15,0,15,4.5V8.25q0,4.5-4.5,4.5h-.375a.76.76,0,0,0-.6.3L8.4,14.55a1.066,1.066,0,0,1-1.8,0l-1.125-1.5a.848.848,0,0,0-.6-.3Z" transform="translate(1.5 1.5)" fill="none" stroke="#fff" stroke-linecap="round" stroke-linejoin="round" stroke-miterlimit="10" stroke-width="1" stroke-dasharray="0 0"/>
          <path id="Vector-2" data-name="Vector" d="M0,0H7.5" transform="translate(5.25 6)" fill="none" stroke="#fff" stroke-linecap="round" stroke-linejoin="round" stroke-width="1" stroke-dasharray="0 0" opacity="0.4"/>
          <path id="Vector-3" data-name="Vector" d="M0,0H4.5" transform="translate(5.25 9.75)" fill="none" stroke="#fff" stroke-linecap="round" stroke-linejoin="round" stroke-width="1" stroke-dasharray="0 0" opacity="0.4"/>
          <path id="Vector-4" data-name="Vector" d="M18,0V18H0V0Z" fill="none" stroke="#fff" stroke-width="1" opacity="0"/>
        </g>
      </g>
    </g>
  </g>
</svg>
