<svg xmlns="http://www.w3.org/2000/svg" width="23.178" height="23.151" viewBox="0 0 23.178 23.151">
  <g id="Group_71956" data-name="Group 71956" transform="translate(328 -1757)">
    <g id="Group_71949" data-name="Group 71949" transform="translate(-36)">
      <path id="Vector" d="M14.228.912a5.618,5.618,0,0,0-6.356.15l-5.8,4.526A5.965,5.965,0,0,0,0,9.8v7.988a5.361,5.361,0,0,0,5.349,5.36h12.48A5.351,5.351,0,0,0,23.178,17.8V9.953A5.908,5.908,0,0,0,20.9,5.577Z" transform="translate(-292 1757)" fill="#b6b5da"/>
      <path id="Vector-2" data-name="Vector" d="M0,4.544V.909A.915.915,0,0,1,.909,0a.915.915,0,0,1,.909.909V4.544a.915.915,0,0,1-.909.909A.915.915,0,0,1,0,4.544Z" transform="translate(-281 1771.051)" fill="#4a46a3"/>
    </g>
  </g>
</svg>
