<svg xmlns="http://www.w3.org/2000/svg" width="146.713" height="165.511" viewBox="0 0 146.713 165.511">
  <g id="Group_47306" data-name="Group 47306" transform="translate(-112 -197.456)">
    <g id="freepik--Plant--inject-74" transform="translate(112 282.578)">
      <path id="Path_80401" data-name="Path 80401" d="M354.14,284.07c8.686-6.066,10.654-17.328,10.311-27.453-.056-1.687.129-3.474-.675-4.953s-2.682-2.5-4.194-1.788c-1.254.59-1.8,2.052-2.5,3.261a9.873,9.873,0,0,1-3.964,3.784,3.756,3.756,0,0,1-3.469.315c-1.462-.8-1.63-2.811-1.619-4.5q0-4.706.056-9.4a15.646,15.646,0,0,0-.506-4.992,5.232,5.232,0,0,0-3.278-3.525,3.2,3.2,0,0,0-3.935,2.12,16.185,16.185,0,0,0-.051,2.091,1.817,1.817,0,0,1-1.029,1.687c-.658.214-1.344-.275-1.85-.77a22.214,22.214,0,0,1-4.009-6.055,30.913,30.913,0,0,0-3.744-6.252,9.112,9.112,0,0,0-6.184-3.458,5.417,5.417,0,0,0-5.577,3.716c-.607,2.361.77,4.773,2.249,6.69a37.6,37.6,0,0,0,7.809,7.449,3.058,3.058,0,0,1,1.31,1.4c.365,1.124-.7,2.249-1.8,2.6a19.815,19.815,0,0,1-3.936.444,3.781,3.781,0,0,0-3.227,1.968c-.686,1.72.753,3.52,2.165,4.7A32.261,32.261,0,0,0,332,258.647a10.875,10.875,0,0,1,3.536,1.715,3.106,3.106,0,0,1,1,3.564,3.164,3.164,0,0,1-3.446,1.321,22.409,22.409,0,0,1-3.688-1.406c-2.311-.871-5.29-.714-6.747,1.282a5.319,5.319,0,0,0-.562,4.706,12.274,12.274,0,0,0,2.547,4.155,32.4,32.4,0,0,0,13.864,9.687c5.358,1.855,10.322,2.361,15.646.41" transform="translate(-317.775 -224.174)" fill="#e6ecff"/>
      <path id="Path_80402" data-name="Path 80402" d="M335.482,226.66s.051.056.163.157l.5.444c.439.394,1.085.967,1.9,1.726a62.745,62.745,0,0,1,6.421,6.932c1.254,1.557,2.552,3.323,3.935,5.24s2.811,3.986,4.228,6.184a76.268,76.268,0,0,1,4.143,7.185c.652,1.287,1.226,2.631,1.816,4l1.743,4.189a154.516,154.516,0,0,1,5.993,16.175,75.331,75.331,0,0,1,2.811,13.791,54.837,54.837,0,0,1,.157,9.5c-.09,1.124-.174,1.985-.253,2.569-.034.281-.056.506-.079.669v.23a1.174,1.174,0,0,0,.051-.225c.028-.163.062-.382.107-.663.1-.562.208-1.451.309-2.575a52.249,52.249,0,0,0-.056-9.524,74.108,74.108,0,0,0-2.749-13.853,150.906,150.906,0,0,0-5.976-16.214l-1.788-4.172c-.59-1.366-1.169-2.721-1.827-4.014a75.286,75.286,0,0,0-4.177-7.2c-1.439-2.249-2.89-4.284-4.256-6.184s-2.687-3.677-3.936-5.229a59.766,59.766,0,0,0-6.5-6.882c-.832-.748-1.5-1.31-1.945-1.687l-.523-.422a1.227,1.227,0,0,0-.208-.146Z" transform="translate(-332.861 -225.262)" fill="#263238"/>
      <path id="Path_80403" data-name="Path 80403" d="M353.645,261.6a3.478,3.478,0,0,0,.163-.714c.09-.467.191-1.124.309-1.979.242-1.687.489-4,.753-6.555s.562-4.874.81-6.544c.129-.832.242-1.5.32-1.968a3.037,3.037,0,0,0,.1-.731,3.109,3.109,0,0,0-.208.7c-.124.461-.264,1.124-.422,1.962-.32,1.687-.635,3.98-.9,6.544s-.489,4.813-.663,6.561c-.084.787-.157,1.456-.214,1.99a3.115,3.115,0,0,0-.045.731Z" transform="translate(-329.548 -232.464)" fill="#263238"/>
      <path id="Path_80404" data-name="Path 80404" d="M358.14,268.79a4.5,4.5,0,0,0,.832.1c.562.051,1.361.118,2.35.231,1.979.214,4.7.607,7.685,1.169s5.667,1.2,7.6,1.687c.961.247,1.737.472,2.249.624a4.107,4.107,0,0,0,.843.2,4.9,4.9,0,0,0-.81-.32c-.529-.186-1.293-.444-2.249-.72-1.917-.562-4.6-1.231-7.6-1.8a76.549,76.549,0,0,0-7.674-1.068c-1-.084-1.8-.118-2.361-.129a4.323,4.323,0,0,0-.866.028Z" transform="translate(-355.677 -243.689)" fill="#263238"/>
      <path id="Path_80405" data-name="Path 80405" d="M321.95,297.225a1.17,1.17,0,0,0,.146-.264l.371-.781c.32-.68.753-1.687,1.271-2.918,1.046-2.474,2.378-5.937,3.795-9.783s2.721-7.309,3.711-9.811c.484-1.214.883-2.21,1.181-2.952l.315-.8a1.084,1.084,0,0,0,.09-.292,1.169,1.169,0,0,0-.146.264l-.371.781c-.315.68-.753,1.687-1.271,2.918-1.046,2.474-2.378,5.937-3.795,9.783s-2.721,7.309-3.711,9.811c-.483,1.214-.883,2.21-1.175,2.952-.129.32-.236.562-.32.8A1.086,1.086,0,0,0,321.95,297.225Z" transform="translate(-288.464 -244.069)" fill="#263238"/>
      <path id="Path_80406" data-name="Path 80406" d="M341.29,302.25a1.193,1.193,0,0,0,.287.118l.832.281,3.075,1c2.6.843,6.184,2.046,10.12,3.373s7.539,2.508,10.154,3.295c1.3.4,2.367.7,3.1.905l.849.219a1.455,1.455,0,0,0,.3.062,1.192,1.192,0,0,0-.287-.118l-.832-.281-3.075-1c-2.6-.843-6.184-2.046-10.12-3.373s-7.534-2.507-10.148-3.295c-1.31-.4-2.367-.7-3.109-.905l-.849-.219A1.455,1.455,0,0,0,341.29,302.25Z" transform="translate(-336.522 -258.354)" fill="#263238"/>
    </g>
    <rect id="Rectangle_17208" data-name="Rectangle 17208" width="21.246" height="4.627" transform="translate(216.034 294.062)" fill="#f0f0f0"/>
    <g id="freepik--Plant--inject-74-2" data-name="freepik--Plant--inject-74" transform="translate(212 276.866)">
      <path id="Path_80401-2" data-name="Path 80401" d="M328.123,284.07c-8.686-6.066-10.654-17.328-10.311-27.453.056-1.687-.129-3.474.675-4.953s2.682-2.5,4.194-1.788c1.254.59,1.8,2.052,2.5,3.261a9.873,9.873,0,0,0,3.964,3.784,3.756,3.756,0,0,0,3.469.315c1.462-.8,1.63-2.811,1.619-4.5q0-4.706-.056-9.4a15.646,15.646,0,0,1,.506-4.992,5.232,5.232,0,0,1,3.278-3.525,3.2,3.2,0,0,1,3.935,2.12,16.185,16.185,0,0,1,.051,2.091,1.817,1.817,0,0,0,1.029,1.687c.658.214,1.344-.275,1.85-.77a22.214,22.214,0,0,0,4.009-6.055,30.913,30.913,0,0,1,3.744-6.252,9.112,9.112,0,0,1,6.184-3.458,5.417,5.417,0,0,1,5.577,3.716c.607,2.361-.77,4.773-2.249,6.69a37.6,37.6,0,0,1-7.809,7.449,3.058,3.058,0,0,0-1.31,1.4c-.365,1.124.7,2.249,1.8,2.6a19.815,19.815,0,0,0,3.936.444,3.781,3.781,0,0,1,3.227,1.968c.686,1.72-.753,3.52-2.165,4.7a32.261,32.261,0,0,1-9.513,5.493,10.875,10.875,0,0,0-3.536,1.715,3.106,3.106,0,0,0-1,3.564,3.164,3.164,0,0,0,3.446,1.321,22.409,22.409,0,0,0,3.688-1.406c2.311-.871,5.29-.714,6.747,1.282a5.319,5.319,0,0,1,.562,4.706,12.274,12.274,0,0,1-2.547,4.155,32.4,32.4,0,0,1-13.864,9.687c-5.358,1.855-10.322,2.361-15.646.41" transform="translate(-317.775 -224.174)" fill="#3855ae"/>
      <path id="Path_80402-2" data-name="Path 80402" d="M369.619,226.66s-.051.056-.163.157l-.5.444c-.439.394-1.085.967-1.9,1.726a62.745,62.745,0,0,0-6.421,6.932c-1.254,1.557-2.552,3.323-3.935,5.24s-2.811,3.986-4.228,6.184a76.268,76.268,0,0,0-4.143,7.185c-.652,1.287-1.226,2.631-1.816,4l-1.743,4.189a154.516,154.516,0,0,0-5.993,16.175,75.331,75.331,0,0,0-2.811,13.791,54.837,54.837,0,0,0-.157,9.5c.09,1.124.174,1.985.253,2.569.034.281.056.506.079.669v.23a1.174,1.174,0,0,1-.051-.225c-.028-.163-.062-.382-.107-.663-.1-.562-.208-1.451-.309-2.575a52.249,52.249,0,0,1,.056-9.524,74.108,74.108,0,0,1,2.749-13.853,150.906,150.906,0,0,1,5.976-16.214l1.788-4.172c.59-1.366,1.169-2.721,1.827-4.014a75.286,75.286,0,0,1,4.177-7.2c1.439-2.249,2.89-4.284,4.256-6.184s2.687-3.677,3.936-5.229a59.766,59.766,0,0,1,6.5-6.882c.832-.748,1.5-1.31,1.945-1.687l.523-.422a1.227,1.227,0,0,1,.208-.146Z" transform="translate(-325.527 -225.262)" fill="#263238"/>
      <path id="Path_80403-2" data-name="Path 80403" d="M356.091,261.6a3.478,3.478,0,0,1-.163-.714c-.09-.467-.191-1.124-.309-1.979-.242-1.687-.489-4-.753-6.555s-.562-4.874-.81-6.544c-.129-.832-.242-1.5-.32-1.968a3.037,3.037,0,0,1-.1-.731,3.109,3.109,0,0,1,.208.7c.124.461.264,1.124.422,1.962.32,1.687.635,3.98.9,6.544s.489,4.813.663,6.561c.084.787.157,1.456.214,1.99a3.115,3.115,0,0,1,.045.731Z" transform="translate(-333.476 -232.464)" fill="#263238"/>
      <path id="Path_80404-2" data-name="Path 80404" d="M379.7,268.79a4.5,4.5,0,0,1-.832.1c-.562.051-1.361.118-2.35.231-1.979.214-4.7.607-7.685,1.169s-5.667,1.2-7.6,1.687c-.961.247-1.737.472-2.249.624a4.107,4.107,0,0,1-.843.2,4.9,4.9,0,0,1,.81-.32c.529-.186,1.293-.444,2.249-.72,1.917-.562,4.6-1.231,7.6-1.8a76.549,76.549,0,0,1,7.674-1.068c1-.084,1.8-.118,2.361-.129a4.323,4.323,0,0,1,.866.028Z" transform="translate(-335.446 -243.689)" fill="#263238"/>
      <path id="Path_80405-2" data-name="Path 80405" d="M332.829,297.225a1.17,1.17,0,0,1-.146-.264l-.371-.781c-.32-.68-.753-1.687-1.271-2.918-1.046-2.474-2.378-5.937-3.795-9.783s-2.721-7.309-3.711-9.811c-.484-1.214-.883-2.21-1.181-2.952l-.315-.8a1.084,1.084,0,0,1-.09-.292,1.169,1.169,0,0,1,.146.264l.371.781c.315.68.753,1.687,1.271,2.918,1.046,2.474,2.378,5.937,3.795,9.783s2.721,7.309,3.711,9.811c.483,1.214.883,2.21,1.175,2.952.129.32.236.562.32.8A1.086,1.086,0,0,1,332.829,297.225Z" transform="translate(-319.603 -244.069)" fill="#263238"/>
      <path id="Path_80406-2" data-name="Path 80406" d="M370.014,302.25a1.193,1.193,0,0,1-.287.118l-.832.281-3.075,1c-2.6.843-6.184,2.046-10.12,3.373s-7.539,2.508-10.154,3.295c-1.3.4-2.367.7-3.1.905l-.849.219a1.455,1.455,0,0,1-.3.062,1.192,1.192,0,0,1,.287-.118l.832-.281,3.075-1c2.6-.843,6.184-2.046,10.12-3.373s7.534-2.507,10.148-3.295c1.31-.4,2.367-.7,3.109-.905l.849-.219A1.455,1.455,0,0,1,370.014,302.25Z" transform="translate(-328.069 -258.354)" fill="#263238"/>
    </g>
    <g id="freepik--Device--inject-74" transform="translate(144.295 197.456)">
      <path id="Path_80412" data-name="Path 80412" d="M265.682,248.441l-56.16-.259a12.24,12.24,0,0,1-12.172-12.29l.6-140.785a12.228,12.228,0,0,1,12.29-12.178l56.154.259a12.239,12.239,0,0,1,12.178,12.284l-.6,140.779A12.239,12.239,0,0,1,265.682,248.441Z" transform="translate(-197.35 -82.93)" fill="#3855ae"/>
      <path id="Path_80413" data-name="Path 80413" d="M269.217,91.851H258.333a2.7,2.7,0,0,0-2.654,2.755v1.973a2.7,2.7,0,0,1-2.654,2.749l-21.218-.1a2.71,2.71,0,0,1-2.637-2.777V94.482a2.71,2.71,0,0,0-2.631-2.777h-3.829l-9.53-.045a8.568,8.568,0,0,0-8.619,8.484L204,237.561a8.563,8.563,0,0,0,8.523,8.6l56.042.259a8.568,8.568,0,0,0,8.608-8.529l.562-137.417a8.574,8.574,0,0,0-8.518-8.624Z" transform="translate(-200.261 -86.752)" fill="#fff"/>
      <path id="Path_80414" data-name="Path 80414" d="M273.537,324.063l-41.672-.18c-.433,0-.781-.472-.776-1.046l.045-10.9c0-.562.354-1.046.787-1.046l41.672.191a.944.944,0,0,1,.776,1.051l-.039,10.89C274.33,323.6,273.97,324.068,273.537,324.063Z" transform="translate(-212.121 -182.727)" fill="#3855ae"/>
      <text id="SING_UP" data-name="SING UP" transform="translate(31.057 135.57)" fill="#e8e8e3" font-size="4" font-family="Montserrat-Regular, Montserrat"><tspan x="0" y="0">SING UP</tspan></text>
      <rect id="Rectangle_17226" data-name="Rectangle 17226" width="14.46" height="2.654" transform="translate(13.597 45.43) rotate(0.26)" fill="#3855ae"/>
      <rect id="Rectangle_17227" data-name="Rectangle 17227" width="14.46" height="2.654" transform="translate(13.597 45.43) rotate(0.26)" opacity="0.1"/>
      <path id="Path_80415" data-name="Path 80415" d="M278.231,185.116a1.294,1.294,0,0,0,.332-.079.888.888,0,0,0,.562-.759v-7.466a1.091,1.091,0,0,0-.157-.737.843.843,0,0,0-.669-.343h-9l-47.024-.174a.748.748,0,0,0-.618.309,1.074,1.074,0,0,0-.146.736q0,.843,0,1.687v5.06a4.436,4.436,0,0,0,0,.787.759.759,0,0,0,.439.506.877.877,0,0,0,.349.062h2.862l12.487.067,21.139.129,14.252.112,3.874.045H258.784l-21.139-.067-12.487-.051H222.3a1.124,1.124,0,0,1-.461-.079,1.057,1.057,0,0,1-.607-.7,1.591,1.591,0,0,1-.034-.45v-7.163a3.152,3.152,0,0,1,0-.45.956.956,0,0,1,.186-.455,1.034,1.034,0,0,1,.855-.433l47.024.259,8.124.056h.877a.961.961,0,0,1,.787.41,1.2,1.2,0,0,1,.18.826v3.593c0,1.687-.039,2.98-.051,3.879a.911.911,0,0,1-.59.781A.675.675,0,0,1,278.231,185.116Z" transform="translate(-207.785 -123.328)" fill="#e0e0e0"/>
      <rect id="Rectangle_17228" data-name="Rectangle 17228" width="26.447" height="2.479" transform="translate(17.94 55.052)" fill="#3855ae"/>
      <rect id="Rectangle_17229" data-name="Rectangle 17229" width="26.447" height="2.479" transform="translate(17.94 55.052)" fill="#fff" opacity="0.2"/>
      <rect id="Rectangle_17230" data-name="Rectangle 17230" width="14.46" height="2.654" transform="translate(13.498 69.638) rotate(0.26)" fill="#3855ae"/>
      <rect id="Rectangle_17231" data-name="Rectangle 17231" width="14.46" height="2.654" transform="translate(13.498 69.638) rotate(0.26)" opacity="0.1"/>
      <path id="Path_80416" data-name="Path 80416" d="M277.764,228.224a2.9,2.9,0,0,0,.337-.062,1.153,1.153,0,0,0,.708-.641,1.575,1.575,0,0,0,.1-.714V220.1a1.209,1.209,0,0,0-.163-.742,1.091,1.091,0,0,0-.613-.478,3.445,3.445,0,0,0-.849-.045H269.2l-46.861-.174a1.04,1.04,0,0,0-1.029.905v6.747a3.228,3.228,0,0,0,.034.787,1.068,1.068,0,0,0,.41.562,1.169,1.169,0,0,0,.7.18h2.406l12.442.062,21.066.129,14.2.112,3.862.045H258.362l-21.078-.022-12.442-.045H222.4a1.411,1.411,0,0,1-.86-.231,1.349,1.349,0,0,1-.528-.736,3.541,3.541,0,0,1-.045-.866q0-.843,0-1.687v-5.06a1.332,1.332,0,0,1,1.321-1.164l46.861.259,8.09.062a3.481,3.481,0,0,1,.9.062,1.242,1.242,0,0,1,.691.562,1.355,1.355,0,0,1,.18.821v6.735a1.569,1.569,0,0,1-.118.736,1.192,1.192,0,0,1-.759.641,1.057,1.057,0,0,1-.365-.034Z" transform="translate(-207.683 -142.227)" fill="#e0e0e0"/>
      <rect id="Rectangle_17232" data-name="Rectangle 17232" width="14.46" height="2.654" transform="translate(13.389 94.898) rotate(0.26)" fill="#3855ae"/>
      <rect id="Rectangle_17233" data-name="Rectangle 17233" width="14.46" height="2.654" transform="translate(13.389 94.898) rotate(0.26)" opacity="0.1"/>
      <path id="Path_80417" data-name="Path 80417" d="M277.6,273.078a2.692,2.692,0,0,0,.337-.062,1.158,1.158,0,0,0,.708-.635,1.586,1.586,0,0,0,.1-.714c0-.276,0-.562,0-.894v-5.819a1.209,1.209,0,0,0-.163-.742,1.124,1.124,0,0,0-.613-.472,3.435,3.435,0,0,0-.849-.051h-8.09l-46.861-.174a1.04,1.04,0,0,0-1.029.905q0,.843,0,1.687v5.06a3.182,3.182,0,0,0,.034.782,1.029,1.029,0,0,0,.41.562,1.124,1.124,0,0,0,.7.18h2.446l12.442.067,21.066.129,14.2.112,3.862.045H258.241l-21.066-.062-12.442-.051h-2.446a1.377,1.377,0,0,1-.86-.23,1.35,1.35,0,0,1-.528-.737,3.541,3.541,0,0,1-.045-.866v-6.775a1.327,1.327,0,0,1,1.316-1.164l46.861.259,8.09.062a3.481,3.481,0,0,1,.9.062,1.242,1.242,0,0,1,.692.562,1.355,1.355,0,0,1,.18.821v6.735a1.54,1.54,0,0,1-.118.737,1.192,1.192,0,0,1-.759.641A.888.888,0,0,1,277.6,273.078Z" transform="translate(-207.635 -161.831)" fill="#e0e0e0"/>
      <rect id="Rectangle_17234" data-name="Rectangle 17234" width="26.447" height="2.479" transform="translate(17.376 79.843) rotate(0.26)" fill="#3855ae"/>
      <rect id="Rectangle_17235" data-name="Rectangle 17235" width="26.447" height="2.479" transform="translate(17.376 79.843) rotate(0.26)" fill="#fff" opacity="0.2"/>
      <path id="Path_80418" data-name="Path 80418" d="M230.709,271.672a1.158,1.158,0,1,1-1.124-1.242A1.192,1.192,0,0,1,230.709,271.672Z" transform="translate(-210.941 -165.014)" fill="#3855ae"/>
      <path id="Path_80419" data-name="Path 80419" d="M237.079,271.705a1.158,1.158,0,1,1-.553-1.07A1.158,1.158,0,0,1,237.079,271.705Z" transform="translate(-213.73 -165.03)" fill="#3855ae"/>
      <path id="Path_80420" data-name="Path 80420" d="M243.459,271.732a1.158,1.158,0,1,1-1.124-1.242A1.2,1.2,0,0,1,243.459,271.732Z" transform="translate(-216.523 -165.04)" fill="#3855ae"/>
      <path id="Path_80421" data-name="Path 80421" d="M249.829,271.762a1.158,1.158,0,1,1-1.124-1.242,1.2,1.2,0,0,1,1.124,1.242Z" transform="translate(-219.311 -165.053)" fill="#3855ae"/>
      <path id="Path_80422" data-name="Path 80422" d="M256.2,271.787a1.158,1.158,0,1,1-1.124-1.237A1.2,1.2,0,0,1,256.2,271.787Z" transform="translate(-222.1 -165.066)" fill="#3855ae"/>
      <path id="Path_80423" data-name="Path 80423" d="M262.578,271.817a1.158,1.158,0,1,1-1.153-1.237A1.2,1.2,0,0,1,262.578,271.817Z" transform="translate(-224.893 -165.08)" fill="#3855ae"/>
      <path id="Path_80424" data-name="Path 80424" d="M268.949,271.845a1.158,1.158,0,1,1-.553-1.07A1.158,1.158,0,0,1,268.949,271.845Z" transform="translate(-227.682 -165.091)" fill="#3855ae"/>
      <path id="Path_80425" data-name="Path 80425" d="M275.318,271.877a1.158,1.158,0,1,1-1.153-1.237A1.2,1.2,0,0,1,275.318,271.877Z" transform="translate(-230.47 -165.106)" fill="#3855ae"/>
      <path id="Path_80426" data-name="Path 80426" d="M281.688,271.907a1.158,1.158,0,1,1-1.124-1.237A1.2,1.2,0,0,1,281.688,271.907Z" transform="translate(-233.259 -165.119)" fill="#3855ae"/>
      <g id="Group_47304" data-name="Group 47304" transform="translate(17.454 105.416)" opacity="0.2">
        <path id="Path_80427" data-name="Path 80427" d="M230.709,271.672a1.158,1.158,0,1,1-1.124-1.242A1.192,1.192,0,0,1,230.709,271.672Z" transform="translate(-228.395 -270.429)" fill="#fff"/>
        <path id="Path_80428" data-name="Path 80428" d="M237.079,271.705a1.158,1.158,0,1,1-.553-1.07A1.158,1.158,0,0,1,237.079,271.705Z" transform="translate(-231.184 -270.446)" fill="#fff"/>
        <path id="Path_80429" data-name="Path 80429" d="M243.459,271.732a1.158,1.158,0,1,1-1.124-1.242A1.2,1.2,0,0,1,243.459,271.732Z" transform="translate(-233.977 -270.456)" fill="#fff"/>
        <path id="Path_80430" data-name="Path 80430" d="M249.829,271.762a1.158,1.158,0,1,1-1.124-1.242,1.2,1.2,0,0,1,1.124,1.242Z" transform="translate(-236.766 -270.469)" fill="#fff"/>
        <path id="Path_80431" data-name="Path 80431" d="M256.2,271.787a1.158,1.158,0,1,1-1.124-1.237A1.2,1.2,0,0,1,256.2,271.787Z" transform="translate(-239.554 -270.482)" fill="#fff"/>
        <path id="Path_80432" data-name="Path 80432" d="M262.578,271.817a1.158,1.158,0,1,1-1.153-1.237A1.2,1.2,0,0,1,262.578,271.817Z" transform="translate(-242.347 -270.495)" fill="#fff"/>
        <path id="Path_80433" data-name="Path 80433" d="M268.949,271.845a1.158,1.158,0,1,1-.553-1.07A1.158,1.158,0,0,1,268.949,271.845Z" transform="translate(-245.136 -270.507)" fill="#fff"/>
        <path id="Path_80434" data-name="Path 80434" d="M275.318,271.877a1.158,1.158,0,1,1-1.153-1.237A1.2,1.2,0,0,1,275.318,271.877Z" transform="translate(-247.925 -270.522)" fill="#fff"/>
        <path id="Path_80435" data-name="Path 80435" d="M281.688,271.907a1.158,1.158,0,1,1-1.124-1.237A1.2,1.2,0,0,1,281.688,271.907Z" transform="translate(-250.713 -270.534)" fill="#fff"/>
      </g>
      <path id="Path_80436" data-name="Path 80436" d="M270.941,125.261a2.176,2.176,0,0,0,1.3-2.018,2.046,2.046,0,1,0-4.087,0,2.181,2.181,0,0,0,1.3,2.041c-3.148.472-3.008,3.891-3.008,3.891l7.444.034S274.067,125.728,270.941,125.261Z" transform="translate(-227.6 -99.635)" fill="#3855ae"/>
      <path id="Path_80437" data-name="Path 80437" d="M270.941,125.261a2.176,2.176,0,0,0,1.3-2.018,2.046,2.046,0,1,0-4.087,0,2.181,2.181,0,0,0,1.3,2.041c-3.148.472-3.008,3.891-3.008,3.891l7.444.034S274.067,125.728,270.941,125.261Z" transform="translate(-227.6 -99.635)" opacity="0.1"/>
      <rect id="Rectangle_17236" data-name="Rectangle 17236" width="26.531" height="3.171" transform="translate(28.906 31.657) rotate(0.26)" fill="#3855ae"/>
      <rect id="Rectangle_17237" data-name="Rectangle 17237" width="26.531" height="3.171" transform="translate(28.906 31.657) rotate(0.26)" fill="#fff" opacity="0.2"/>
    </g>
  </g>
</svg>
