<svg xmlns="http://www.w3.org/2000/svg" xmlns:xlink="http://www.w3.org/1999/xlink" width="105.876" height="23.603" viewBox="0 0 105.876 23.603">
  <defs>
    <clipPath id="clip-path">
      <path id="Path_80442" data-name="Path 80442" d="M16.653,103.276c0,4.225-2.128,6.26-3.881,7.168a8.725,8.725,0,0,1-3.851,1.033H7.983a.9.9,0,0,1-.876-.876.91.91,0,0,1,.876-.939h.938a7.093,7.093,0,0,0,3.069-.814c1.91-1.033,2.848-2.912,2.848-5.572a6.3,6.3,0,0,0-1.6-4.571,6.346,6.346,0,0,0-2.755-1.5,8.058,8.058,0,0,0-1.565-.188H1.785v12.647H4.852a.915.915,0,0,1,.907.939.9.9,0,0,1-.907.876H1.785v6.355a.9.9,0,0,1-.908.876A.875.875,0,0,1,0,117.832V96.075A.875.875,0,0,1,.876,95.2H8.921a8.562,8.562,0,0,1,5.572,2.254A7.817,7.817,0,0,1,16.653,103.276ZM21.283,116.8a9.721,9.721,0,0,1-2.348-6.136V96.106a.87.87,0,0,1,.907-.907.857.857,0,0,1,.846.907v14.556h0a9.25,9.25,0,0,0,.814,3.287,5.182,5.182,0,0,0,5.134,3.037,5.282,5.282,0,0,0,5.165-3.1,9.316,9.316,0,0,0,.752-3.255V96.106a.863.863,0,0,1,.876-.907.888.888,0,0,1,.907.907v14.525a10.34,10.34,0,0,1-.938,4.038,6.853,6.853,0,0,1-2.286,2.818,7.627,7.627,0,0,1-4.476,1.315A7.351,7.351,0,0,1,21.283,116.8Zm33.178,1.659a.805.805,0,0,1-.626.251.77.77,0,0,1-.627-.314l-6.449-6.918H39.215v6.355a.924.924,0,0,1-.907.876.9.9,0,0,1-.908-.876V96.106a.909.909,0,0,1,.908-.907h7.637a9.121,9.121,0,0,1,5.947,2.379,7.644,7.644,0,0,1,2.16,5.729,10.065,10.065,0,0,1-.751,4.07,7.245,7.245,0,0,1-1.848,2.473.9.9,0,1,1-1.158-1.378c1.315-1.095,1.941-2.817,1.941-5.165a6.116,6.116,0,0,0-1.6-4.476,6.741,6.741,0,0,0-3-1.6,8.535,8.535,0,0,0-1.691-.219h-6.73v12.647H47.2a.964.964,0,0,1,.627.281l6.7,7.262A.891.891,0,0,1,54.46,118.458Zm2.531-16.81V96.075a.855.855,0,0,1,.876-.876H70.953a.855.855,0,0,1,.876.876.881.881,0,0,1-.876.907H58.776v4.665a.908.908,0,0,1-.908.907A.881.881,0,0,1,56.991,101.648Zm.876,17.061a.856.856,0,0,1-.876-.876V105.4a.881.881,0,0,1,.876-.907h9.923a.892.892,0,1,1,0,1.784H58.776v10.643H70.953a.882.882,0,0,1,.876.908.856.856,0,0,1-.876.876Zm15.4-3.6v-19a.909.909,0,0,1,.908-.907.882.882,0,0,1,.876.907v19a.855.855,0,0,1-.876.876A.882.882,0,0,1,73.265,115.108Zm.908,3.6a.909.909,0,0,1-.908-.908.882.882,0,0,1,.908-.876H86.068a.9.9,0,0,1,.908.876.93.93,0,0,1-.908.908Zm18.591-17.124-3.381-4.946a.9.9,0,0,1,.189-1.252.968.968,0,0,1,1.283.22l3.381,4.945a.9.9,0,0,1-.219,1.253,1.042,1.042,0,0,1-.5.157A.981.981,0,0,1,92.764,101.585Zm3.882,16.247V107.22l-1.785-2.6a.891.891,0,0,1,.22-1.221.868.868,0,0,1,1.252.22l1.19,1.753,6.7-9.767a.929.929,0,0,1,1.252-.22.907.907,0,0,1,.251,1.252L98.43,107.22v10.612a.892.892,0,0,1-1.784,0Z" transform="translate(0 -95.199)" fill="none"/>
    </clipPath>
    <linearGradient id="linear-gradient" x1="0.011" y1="0.5" x2="0.988" y2="0.5" gradientUnits="objectBoundingBox">
      <stop offset="0" stop-color="#89137d"/>
      <stop offset="1" stop-color="#0085d3"/>
    </linearGradient>
  </defs>
  <g id="Group_71958" data-name="Group 71958" clip-path="url(#clip-path)">
    <rect id="Rectangle_17240" data-name="Rectangle 17240" width="108.29" height="132.527" transform="translate(-1.144 -107.78)" fill="url(#linear-gradient)"/>
  </g>
</svg>
