<svg id="vuesax_bulk_category-2" data-name="vuesax/bulk/category-2" xmlns="http://www.w3.org/2000/svg" width="52" height="52" viewBox="0 0 52 52">
  <g id="vuesax_bulk_category-2-2" data-name="vuesax/bulk/category-2">
    <g id="category-2">
      <path id="Vector" d="M8.658,0C2.99,0,0,2.99,0,8.658V13.6c0,5.668,2.99,8.658,8.658,8.658H13.6c5.668,0,8.658-2.99,8.658-8.658V8.658C22.256,2.99,19.266,0,13.6,0Z" transform="translate(29.743)" fill="#3f51a3" opacity="0.4"/>
      <path id="Vector-2" data-name="Vector" d="M8.684,0C2.99,0,0,2.99,0,8.658V13.6c0,5.694,2.99,8.684,8.658,8.684H13.6c5.668,0,8.658-2.99,8.658-8.658V8.684C22.282,2.99,19.292,0,13.624,0Z" transform="translate(0 29.718)" fill="#3f51a3" opacity="0.4"/>
      <path id="Vector-3" data-name="Vector" d="M11.154,22.308A11.154,11.154,0,1,1,22.308,11.154,11.154,11.154,0,0,1,11.154,22.308Z" fill="#3f51a3"/>
      <path id="Vector-4" data-name="Vector" d="M11.154,22.308A11.154,11.154,0,1,1,22.308,11.154,11.154,11.154,0,0,1,11.154,22.308Z" transform="translate(29.692 29.692)" fill="#3f51a3"/>
    </g>
  </g>
</svg>
