<svg xmlns="http://www.w3.org/2000/svg" xmlns:xlink="http://www.w3.org/1999/xlink" width="168.396" height="168.396" viewBox="0 0 168.396 168.396">
  <defs>
    <clipPath id="clip-path">
      <path id="Vector" d="M80.757,161.513a80.757,80.757,0,1,1,80.757-80.757A80.757,80.757,0,0,1,80.757,161.513Z" fill="#c4c4c4"/>
    </clipPath>
  </defs>
  <g id="illustration" transform="translate(0.447 0.447)">
    <path id="Vector_5" data-name="Vector 5" d="M167.5,0,0,167.5" fill="none" stroke="#1c6fc2" stroke-miterlimit="10" stroke-width="1.266" stroke-dasharray="3.782 3.782"/>
    <path id="Vector-2" data-name="Vector" d="M80.757,161.513a80.757,80.757,0,1,1,80.757-80.757A80.757,80.757,0,0,1,80.757,161.513Z" transform="translate(2.638 2.638)" fill="#fff"/>
    <g id="Mask_Group" data-name="Mask Group" transform="translate(2.638 2.638)">
      <path id="Vector-3" data-name="Vector" d="M80.757,161.513a80.757,80.757,0,1,1,80.757-80.757A80.757,80.757,0,0,1,80.757,161.513Z" fill="#f9f9f9"/>
      <g id="Mask_Group-2" data-name="Mask Group" clip-path="url(#clip-path)">
        <path id="Vector-4" data-name="Vector" d="M7.024,0C-.457.038-2.915,8.162,4.386,15.827A107.458,107.458,0,0,0,20.846,29.5s-5.469,20.953,2.563,35.1S43.588,87.914,58.8,94s26.442,7.126,26.442,7.126l29.146,19.655L144.154,88.5s-34.248-36.388-41.923-48.545S43.741,2.285,26.425,8.66C26.425,8.66,14.508-.038,7.024,0Z" transform="translate(21.989 37.149)" fill="#f9d2dd"/>
      </g>
    </g>
    <g id="Group" transform="translate(41.177 47.362)">
      <path id="Vector-5" data-name="Vector" d="M19.007,31.925,7.31,0,0,18.979Z" fill="#f9acc0"/>
      <path id="Vector-6" data-name="Vector" d="M24.565,49.364c-1-.534-2.912-1.827-4.382-2.845a133.387,133.387,0,0,0-7.965-45.21Q11.078.652,9.9,0L0,1.393l8.558,75.02c1.635.325,2.964.542,3.93.684A27.173,27.173,0,0,0,15.362,72.4l-.726,5.041,10.212,6.886A41.955,41.955,0,0,1,23.393,64.55C24.92,55.956,33.464,52.7,33.464,52.7A31.153,31.153,0,0,1,24.565,49.364Z" transform="translate(54.377 16.217)" fill="#f9acc0"/>
    </g>
    <path id="Vector-7" data-name="Vector" d="M7.253,106.086A6.77,6.77,0,0,1,.47,99.371L0,7.028A6.77,6.77,0,0,1,6.715.244L54.829,0a6.77,6.77,0,0,1,6.783,6.715l.47,92.343a6.77,6.77,0,0,1-6.715,6.783Z" transform="translate(48.412 25.418)" fill="#3855ae"/>
    <path id="Vector-8" data-name="Vector" d="M40.564.042,40.578,3a2.649,2.649,0,0,1-2.627,2.654l-20.9.107a2.649,2.649,0,0,1-2.654-2.627L14.38.176,6.187.218A6.236,6.236,0,0,0,0,6.469L.45,94.693A6.236,6.236,0,0,0,6.7,100.879l42.572-.216a6.236,6.236,0,0,0,6.187-6.251L55.01,6.189A6.243,6.243,0,0,0,48.757,0Z" transform="translate(51.57 27.703)" fill="#fff"/>
    <g id="Group-2" data-name="Group" transform="translate(56.051 43.084)">
      <path id="Vector-9" data-name="Vector" d="M1.728,13.189C.8,13.2.037,12.181.033,10.934L0,2.317C0,1.07.75.046,1.678.04L7.5,0C8.433-.006,9.195,1.008,9.2,2.255l.033,8.617c0,1.245-.75,2.269-1.678,2.277Z" transform="translate(0 0)" fill="#eaeaff"/>
      <path id="Vector-10" data-name="Vector" d="M1.728,13.189C.8,13.2.037,12.181.033,10.934L0,2.317C0,1.07.75.046,1.678.04L7.5,0C8.433-.006,9.195,1.008,9.2,2.255l.033,8.617c0,1.245-.75,2.269-1.678,2.277Z" transform="translate(11.87 0)" fill="#eaeaff"/>
      <path id="Vector-11" data-name="Vector" d="M1.728,13.189C.8,13.2.037,12.181.033,10.934L0,2.317C0,1.07.75.046,1.678.04L7.5,0C8.433-.006,9.195,1.008,9.2,2.255l.033,8.617c0,1.245-.75,2.269-1.678,2.277Z" transform="translate(23.741 0)" fill="#eaeaff"/>
      <path id="Vector-12" data-name="Vector" d="M1.728,13.189C.8,13.2.037,12.181.033,10.934L0,2.317C0,1.07.75.046,1.678.04L7.5,0C8.433-.006,9.195,1.008,9.2,2.255l.033,8.617c0,1.245-.75,2.269-1.678,2.277Z" transform="translate(35.611 0)" fill="#eaeaff"/>
    </g>
    <g id="Group-3" data-name="Group" transform="translate(51.728 60.554)">
      <g id="Group-4" data-name="Group" transform="translate(0 0)">
        <path id="Vector-13" data-name="Vector" d="M.27,53.145,0,0,.244,53.149Z" transform="translate(0.004 5.767)" fill="#eaeaff"/>
        <path id="Vector-14" data-name="Vector" d="M11.611,34.405a11.038,11.038,0,0,0,3.1-8.048c-.272-4.864-5.85-8.663-5.85-8.663a11.256,11.256,0,0,0,3.162-10.77C10.756,1.762,3.769.466,0,0L.006,1.2l.27,53.145c3.364-.448,7.2-3.061,10.064-7.739C13.682,41.149,11.611,34.405,11.611,34.405Z" transform="translate(0 4.571)" fill="#eaeaff"/>
        <path id="Vector-15" data-name="Vector" d="M3.085,5.436,0,0,.139,27.287C1.2,29.743,2,31.318,2,31.318Z" transform="translate(55.038 9.998)" fill="#eaeaff"/>
        <path id="Vector-16" data-name="Vector" d="M5.845,37.285,5.706,10,.034,0S-.347,15.632,1.451,24.1A73.717,73.717,0,0,0,5.845,37.285Z" transform="translate(49.33)" fill="#eaeaff"/>
      </g>
    </g>
    <path id="Vector-17" data-name="Vector" d="M10.7,51.259c-.873-3.13.4-8.875-.772-10.889-3.418-5.9-6.949-12.678-8.294-17.539C-1.285,12.283-.458,1.716,5.475.147S17.186,9.99,19.191,14.38,30.306,36.547,30.306,36.547L27.045,63.239S15.313,67.8,10.7,51.259Z" transform="translate(99.753 49.469)" fill="#f9d2dd"/>
    <path id="Vector-18" data-name="Vector" d="M27.493,3.206c4.426,4.819,1.375,10.776-1.256,12.549A10.812,10.812,0,0,1,21.754,17.7s7.255,2.012,8.056,8.157a7.075,7.075,0,0,1-5.463,8.286s4.2,2.724,3.124,7.57S20.463,48.352,15.18,48.16-2,45.6.288,18.967C2.264-4.063,23.068-1.613,27.493,3.206Z" transform="translate(33.819 65.119)" fill="#f9d2dd"/>
    <path id="Vector-19" data-name="Vector" d="M.05,10.166s8.681,1.276,9.536-3.789C10.994-1.971,0,.275,0,.275Z" transform="translate(49.723 67.939)" fill="#f9e1e8"/>
    <path id="Vector-20" data-name="Vector" d="M.05,10.166s8.681,1.276,9.536-3.789C10.994-1.973,0,.275,0,.275Z" transform="translate(49.933 85.779)" fill="#f9e1e8"/>
    <path id="Vector-21" data-name="Vector" d="M.042,8.543s7.3,1.073,8.016-3.184C9.242-1.656,0,.231,0,.231Z" transform="translate(49.876 101.286)" fill="#f9e1e8"/>
    <path id="Vector-22" data-name="Vector" d="M19.036,23.333A24.191,24.191,0,0,1,4.589,15.946C-1.809,9.155.351,0,.351,0" transform="translate(109.982 92.945)" fill="none" stroke="#1f1f39" stroke-miterlimit="10" stroke-width="0.501" stroke-dasharray="0 0"/>
    <g id="Group-5" data-name="Group" transform="translate(35.02 69.912)">
      <path id="Vector-23" data-name="Vector" d="M0,6.769l12.494.1A6.967,6.967,0,0,0,17.828,0c-.5,2.6-2.408,4.583-5.574,5.317S0,6.769,0,6.769Z" transform="translate(10.869 22.429)" fill="#f9acc0"/>
      <path id="Vector-24" data-name="Vector" d="M13.795,10.641C10.508,10.272,5.953,8.574,3.249,5.1A32.168,32.168,0,0,1,0,0C2.865,10.8,10.155,12.079,13.978,12.22c5.043.184,10.677-1.442,12.111-5.81a5.872,5.872,0,0,1-1.553,1.752C21.391,10.5,17.082,11.01,13.795,10.641Z" transform="translate(0 31.145)" fill="#f9acc0"/>
      <path id="Vector-25" data-name="Vector" d="M15.311,10.96c2.349-1.583,5.025-6.5,2.43-10.96a6,6,0,0,1,.532,3.989c-1.061,4.729-4.243,6.37-8.586,7.239A90.4,90.4,0,0,1,0,12.466l10.829.442A10.777,10.777,0,0,0,15.311,10.96Z" transform="translate(9.724)" fill="#f9acc0"/>
    </g>
    <path id="Vector-26" data-name="Vector" d="M0,0,12.4.117" transform="translate(44.641 82.761)" fill="none" stroke="#1f1f39" stroke-linecap="round" stroke-miterlimit="10" stroke-width="0.501" stroke-dasharray="0 0"/>
    <path id="Vector-27" data-name="Vector" d="M0,0,12.4.115" transform="translate(45.901 99.069)" fill="none" stroke="#1f1f39" stroke-linecap="round" stroke-miterlimit="10" stroke-width="0.501" stroke-dasharray="0 0"/>
    <path id="Vector-28" data-name="Vector" d="M0,15.669c0,4.8,2.638,9.086,6.784,11.96.106,2.188-.244,5.209-3.362,6.6l-.006,0a.732.732,0,0,0-.344.261.694.694,0,0,0,.085.907.748.748,0,0,0,.52.209l.052,0h.011a13.112,13.112,0,0,0,8.717-3.875,2.906,2.906,0,0,1,2.505-.771,22.978,22.978,0,0,0,4.16.376c10.562,0,19.124-7.015,19.124-15.669S29.687,0,19.124,0,0,7.015,0,15.669Z" transform="translate(116.721 18.025)" fill="#3855ae"/>
  </g>
</svg>
