<svg xmlns="http://www.w3.org/2000/svg" width="18.99" height="24" viewBox="0 0 18.99 24">
  <g id="Group_71952" data-name="Group 71952" transform="translate(292 -2048)">
    <path id="Vector" d="M0,17.748C0,21.6,2,24,5.2,24H7.79c3.2,0,5.2-2.4,5.2-6.24V6.24C13,2.4,11,0,7.8,0H5.2C2,0,0,2.4,0,6.24Z" transform="translate(-286 2048)" fill="#b5b4d9" opacity="0.4"/>
    <path id="Vector-2" data-name="Vector" d="M13.78,3.575a.754.754,0,0,1,0,1.06l-3.35,3.35a.75.75,0,0,1-1.06-1.06l2.07-2.07H.75a.75.75,0,0,1,0-1.5H11.44L9.37,1.285a.748.748,0,0,1,0-1.06.737.737,0,0,1,1.06,0Z" transform="translate(-292 2055.894)" fill="#4a46a3"/>
  </g>
</svg>
