<svg xmlns="http://www.w3.org/2000/svg" width="28" height="28" viewBox="0 0 28 28">
  <g id="Group_71953" data-name="Group 71953" transform="translate(294 -1987)">
    <path id="Vector" d="M28,0V28H0V0Z" transform="translate(-294 1987)" fill="none" opacity="0"/>
    <path id="Vector-2" data-name="Vector" d="M13.2,19.347,7.861,22.926a1.192,1.192,0,0,1-1.226.056A1.21,1.21,0,0,1,6,21.922V19.347a5.644,5.644,0,0,1-4.349-1.663A5.736,5.736,0,0,1,0,13.3V6.047a5.736,5.736,0,0,1,1.65-4.383A5.644,5.644,0,0,1,6,0H18a5.644,5.644,0,0,1,4.349,1.663A5.736,5.736,0,0,1,24,6.047V13.3a5.736,5.736,0,0,1-1.65,4.383A5.644,5.644,0,0,1,18,19.347Z" transform="translate(-291.991 1989.009)" fill="#4a46a3" opacity="0.4"/>
    <g id="Group_71936" data-name="Group 71936" transform="translate(10 53.532)">
      <g id="Group" transform="translate(-292 1940.468)">
        <path id="Vector-3" data-name="Vector" d="M1.66,5.25V5.04A2.327,2.327,0,0,1,2.83,3.09c.37-.25.49-.42.49-.68a.91.91,0,0,0-1.82,0,.755.755,0,0,1-.75.75A.755.755,0,0,1,0,2.41a2.41,2.41,0,1,1,4.82,0A2.294,2.294,0,0,1,3.67,4.33c-.39.26-.51.43-.51.71v.21a.75.75,0,1,1-1.5,0Z" fill="#4a46a3"/>
      </g>
      <g id="Group-2" data-name="Group" transform="translate(-290.75 1948.429)">
        <path id="Vector-4" data-name="Vector" d="M0,.75a.75.75,0,1,1,.75.75A.755.755,0,0,1,0,.75Z" fill="#4a46a3"/>
      </g>
    </g>
  </g>
</svg>
